<?xml version="1.0" encoding="utf-8"?>
<!-- Generator: Adobe Illustrator 26.0.1, SVG Export Plug-In . SVG Version: 6.00 Build 0)  -->
<svg version="1.1" id="Layer_1" xmlns="http://www.w3.org/2000/svg" xmlns:xlink="http://www.w3.org/1999/xlink" x="0px" y="0px"
	 viewBox="0 0 2222 2222" style="enable-background:new 0 0 2222 2222;" xml:space="preserve">
<style type="text/css">
	.st0{fill:none;stroke:#000000;stroke-width:19;stroke-miterlimit:10;}
</style>
<path class="st0" d="M1406.61,1315.83c-59.48-150.26,40.7-917.22-128.35-1067.48s-413.22-115.83-522.78,18.78
	c-75.46,92.7-147.13,569.74-169.04,807.65c-21.91,237.91-286.5,776.7-244.17,801.39c37.57,21.91,112.7-21.91,140.87-21.91
	s25.04,144,72,134.61c46.96-9.39,59.48-87.65,115.83-72c56.35,15.65,90.78,134.61,156.52,132.6
	c65.74-2.01,112.33-152.32,174.94-136.67s66.11,138.68,108.58,136.65s151.61-129.45,233-135.71s217.45,218.83,261.36,96.92
	C1641.39,1910.61,1466.09,1466.09,1406.61,1315.83z M913.96,510.13c-24.42,0-44.22-12.75-44.22-37.17s19.8-51.26,44.22-51.26
	s39.52,13.54,39.52,37.96S938.38,510.13,913.96,510.13z M1104.69,509.6c-24.27,2.69-45.35-7.8-48.05-32.07
	c-2.69-24.27,14.02-53.13,38.3-55.82c24.27-2.69,40.77,9.1,43.47,33.37C1141.09,479.35,1128.96,506.91,1104.69,509.6z"/>
</svg>
