<?xml version="1.0" encoding="utf-8"?>
<!-- Generator: Adobe Illustrator 26.0.1, SVG Export Plug-In . SVG Version: 6.00 Build 0)  -->
<svg version="1.1" id="Layer_1" xmlns="http://www.w3.org/2000/svg" xmlns:xlink="http://www.w3.org/1999/xlink" x="0px" y="0px"
	 viewBox="0 0 650 650" style="enable-background:new 0 0 650 650;" xml:space="preserve">
<path d="M566.62,397.38c-13.45-18.99-35.62-18.99-19.79-58.57s-18.99-64.9-26.12-75.98c-7.12-11.08-35.62-19.79-50.65-8.71
	c-6.63,4.88-13.11,4.07-19.16,0.49c-3.58,14.06-15.14,27.54-38.44,33.25c-54.13,13.28-39.66-80.08-22.47-82.72
	c11.55-1.78,15.38-0.46,32.97,4.61c-1.6-13.21-0.86-26.25-0.39-27.66c0.79-2.37-26.91-45.9-74.4-73.61
	c-47.49-27.7-117.14,8.71-155.92,12.66c-38.78,3.96-114.76,117.93-121.88,232.69s68.07,139.3,68.07,139.3
	c16.65,5.12,96.56,11.87,117.14-3.96c20.58-15.83,37.2-58.57,57.78-68.07s39.57,85.48,45.11,108.43
	c5.54,22.95,49.86,24.54,80.73,20.58c30.87-3.96,76.77,3.17,127.42-33.24S580.08,416.38,566.62,397.38z M368.55,352.21
	c-17.36,14.3-37.79-2.04-64.34-8.17c-26.55-6.13-11.23-50.04,0-71.49c11.23-21.45,39.83-4.09,48,0c0,0,29.62,27.57,31.66,31.66
	C385.91,308.3,385.91,337.91,368.55,352.21z M413.49,375.19c-18.38-1.02-11.7-55.88-12.77-65.21c-0.5-4.35,22.47,24.87,21.96,21.8
	s-14.3-29.62-1.53-26.55c12.77,3.06,41.87,34.72,41.87,42.38S431.87,376.21,413.49,375.19z"/>
</svg>
