<?xml version="1.0" encoding="utf-8"?>
<!-- Generator: Adobe Illustrator 26.0.2, SVG Export Plug-In . SVG Version: 6.00 Build 0)  -->
<svg version="1.1" id="Layer_1" xmlns="http://www.w3.org/2000/svg" xmlns:xlink="http://www.w3.org/1999/xlink" x="0px" y="0px"
	 width="650px" height="650px" viewBox="0 0 650 650" style="enable-background:new 0 0 650 650;" xml:space="preserve">
<style type="text/css">
	.st0{fill:none;stroke:#000000;stroke-width:7;stroke-miterlimit:10;}
</style>
<path class="st0" d="M566.6,397.4c-13.5-19-35.6-19-19.8-58.6s-19-64.9-26.1-76s-35.6-19.8-50.6-8.7c-6.6,4.9-13.1,4.1-19.2,0.5
	c-3.6,14.1-15.1,27.5-38.4,33.2c-54.1,13.3-39.7-80.1-22.5-82.7c11.5-1.8,15.4-0.5,33,4.6c-1.6-13.2-0.9-26.2-0.4-27.7
	c0.8-2.4-26.9-45.9-74.4-73.6s-117.1,8.7-155.9,12.7S77.5,239,70.4,353.8s68.1,139.3,68.1,139.3c16.6,5.1,96.6,11.9,117.1-4
	s37.2-58.6,57.8-68.1s39.6,85.5,45.1,108.4c5.5,22.9,49.9,24.5,80.7,20.6c30.9-4,76.8,3.2,127.4-33.2S580.1,416.4,566.6,397.4z
	 M368.5,352.2c-17.4,14.3-37.8-2-64.3-8.2s-11.2-50,0-71.5s39.8-4.1,48,0c0,0,29.6,27.6,31.7,31.7S385.9,337.9,368.5,352.2z
	 M413.5,375.2c-18.4-1-11.7-55.9-12.8-65.2c-0.5-4.4,22.5,24.9,22,21.8s-14.3-29.6-1.5-26.5s41.9,34.7,41.9,42.4
	S431.9,376.2,413.5,375.2z"/>
</svg>
